<svg width="32" height="32" viewBox="0 0 60 60" fill="none" xmlns="http://www.w3.org/2000/svg">
  <!-- Outer gear ring -->
  <circle cx="30" cy="30" r="28" fill="none" stroke="#f97316" stroke-width="2"/>
  
  <!-- Gear teeth -->
  <line x1="4" y1="30" x2="8" y2="30" stroke="#f97316" stroke-width="3" stroke-linecap="round"/>
  <line x1="52" y1="30" x2="56" y2="30" stroke="#f97316" stroke-width="3" stroke-linecap="round"/>
  <line x1="30" y1="4" x2="30" y2="8" stroke="#f97316" stroke-width="3" stroke-linecap="round"/>
  <line x1="30" y1="52" x2="30" y2="56" stroke="#f97316" stroke-width="3" stroke-linecap="round"/>
  <line x1="8.8" y1="8.8" x2="11.6" y2="11.6" stroke="#f97316" stroke-width="3" stroke-linecap="round"/>
  <line x1="48.4" y1="48.4" x2="51.2" y2="51.2" stroke="#f97316" stroke-width="3" stroke-linecap="round"/>
  <line x1="51.2" y1="8.8" x2="48.4" y2="11.6" stroke="#f97316" stroke-width="3" stroke-linecap="round"/>
  <line x1="11.6" y1="48.4" x2="8.8" y2="51.2" stroke="#f97316" stroke-width="3" stroke-linecap="round"/>
  
  <!-- Inner hexagon representing precision -->
  <polygon points="30,15 40,22.5 40,37.5 30,45 20,37.5 20,22.5" fill="none" stroke="#1f2937" stroke-width="2"/>
  
  <!-- Center dot -->
  <circle cx="30" cy="30" r="3" fill="#1f2937"/>
  
  <!-- Precision lines -->
  <line x1="30" y1="20" x2="30" y2="25" stroke="#1f2937" stroke-width="1.5"/>
  <line x1="30" y1="35" x2="30" y2="40" stroke="#1f2937" stroke-width="1.5"/>
  <line x1="25" y1="30" x2="20" y2="30" stroke="#1f2937" stroke-width="1.5"/>
  <line x1="35" y1="30" x2="40" y2="30" stroke="#1f2937" stroke-width="1.5"/>
</svg>